<?xml version="1.0" encoding="UTF-8"?><svg id="Layer_1" xmlns="http://www.w3.org/2000/svg" viewBox="0 0 853.81 132.85"><defs><style>.cls-1,.cls-2{fill:#00164e;}.cls-2{fill-rule:evenodd;}</style></defs><g><g><path class="cls-1" d="M529.39,62.73l5.91-3.55c4.16,7.66,8.97,11.5,14.43,11.5,2.33,0,4.53-.54,6.58-1.63,2.05-1.09,3.61-2.55,4.68-4.38s1.61-3.77,1.61-5.82c0-2.33-.79-4.62-2.37-6.86-2.18-3.09-6.15-6.81-11.92-11.17-5.8-4.38-9.42-7.55-10.83-9.51-2.46-3.28-3.69-6.83-3.69-10.65,0-3.03,.73-5.79,2.18-8.28,1.45-2.49,3.49-4.46,6.13-5.89,2.63-1.44,5.5-2.15,8.59-2.15,3.28,0,6.35,.81,9.2,2.44,2.85,1.62,5.87,4.61,9.06,8.97l-5.68,4.31c-2.62-3.47-4.85-5.76-6.69-6.86-1.85-1.1-3.86-1.66-6.03-1.66-2.81,0-5.1,.85-6.88,2.55-1.78,1.7-2.67,3.8-2.67,6.29,0,1.51,.32,2.98,.95,4.4s1.78,2.96,3.45,4.64c.91,.88,3.91,3.2,8.99,6.95,6.02,4.45,10.16,8.41,12.4,11.88,2.24,3.47,3.36,6.95,3.36,10.46,0,5.05-1.92,9.43-5.75,13.15-3.83,3.72-8.49,5.58-13.98,5.58-4.23,0-8.06-1.13-11.5-3.38-3.44-2.26-6.61-6.03-9.51-11.33Z"/><path class="cls-1" d="M577.93,12.91V6.1h38.13v6.81h-15.52v62.78h-7.1V12.91h-15.52Z"/><path class="cls-1" d="M626.33,6.1h6.95V48.12c0,4.98,.09,8.09,.28,9.32,.35,2.74,1.15,5.04,2.41,6.88,1.26,1.85,3.2,3.39,5.82,4.64s5.25,1.87,7.9,1.87c2.3,0,4.51-.49,6.62-1.47,2.11-.98,3.88-2.33,5.3-4.07s2.46-3.83,3.12-6.29c.47-1.77,.71-5.39,.71-10.88V6.1h6.95V48.12c0,6.21-.61,11.24-1.82,15.07-1.21,3.83-3.64,7.17-7.29,10.01-3.64,2.84-8.05,4.26-13.22,4.26-5.61,0-10.42-1.34-14.43-4.02-4.01-2.68-6.69-6.23-8.04-10.65-.85-2.71-1.28-7.6-1.28-14.67V6.1Z"/><path class="cls-1" d="M689.54,75.7V6.1h14.43c10.41,0,17.96,.84,22.66,2.51,6.75,2.37,12.03,6.47,15.83,12.3s5.7,12.79,5.7,20.86c0,6.97-1.51,13.11-4.52,18.4-3.01,5.3-6.92,9.21-11.73,11.73-4.81,2.52-11.55,3.78-20.23,3.78h-22.14Zm6.67-6.58h8.04c9.62,0,16.29-.6,20.01-1.8,5.24-1.7,9.35-4.76,12.35-9.19,3-4.43,4.49-9.84,4.49-16.24,0-6.71-1.62-12.45-4.87-17.21-3.25-4.76-7.77-8.02-13.58-9.79-4.35-1.32-11.53-1.99-21.53-1.99h-4.92v56.21Z"/><path class="cls-1" d="M760.65,6.1h6.95V75.7h-6.95V6.1Z"/><path class="cls-1" d="M816.69,4.35c10.54,0,19.36,3.52,26.46,10.55,7.1,7.03,10.65,15.69,10.65,25.97s-3.54,18.83-10.63,25.93c-7.08,7.1-15.72,10.65-25.92,10.65s-19.03-3.53-26.13-10.6c-7.1-7.07-10.65-15.61-10.65-25.64,0-6.69,1.62-12.88,4.85-18.59,3.23-5.71,7.64-10.18,13.23-13.41,5.59-3.23,11.63-4.85,18.13-4.85Zm.31,6.77c-5.15,0-10.03,1.34-14.64,4.03-4.61,2.68-8.22,6.3-10.8,10.84-2.59,4.55-3.89,9.61-3.89,15.2,0,8.27,2.87,15.25,8.6,20.95,5.74,5.7,12.65,8.55,20.73,8.55,5.4,0,10.4-1.31,15-3.93,4.6-2.62,8.18-6.2,10.76-10.75,2.57-4.55,3.86-9.6,3.86-15.15s-1.29-10.52-3.86-14.99c-2.57-4.47-6.2-8.04-10.87-10.72-4.68-2.68-9.64-4.03-14.88-4.03Z"/></g><g><path class="cls-1" d="M529.39,92.19h3.54v35.42h-3.54v-35.42Z"/><path class="cls-1" d="M541.06,127.61v-35.42h.77l23.57,27.15v-27.15h3.49v35.42h-.79l-23.38-26.82v26.82h-3.66Z"/><path class="cls-1" d="M587.66,95.66v-3.47h19.41v3.47h-7.9v31.95h-3.61v-31.95h-7.9Z"/><path class="cls-1" d="M612.12,92.19h3.54v14.86h18.04v-14.86h3.54v35.42h-3.54v-17.1h-18.04v17.1h-3.54v-35.42Z"/><path class="cls-1" d="M645.88,92.19h20.3v3.47h-16.76v11.1h16.61v3.47h-16.61v13.92h16.61v3.47h-20.15v-35.42Z"/><path class="cls-1" d="M718.94,98.76l-2.79,2.14c-1.54-2.01-3.39-3.53-5.55-4.56-2.16-1.04-4.53-1.55-7.12-1.55-2.83,0-5.44,.68-7.85,2.03-2.41,1.36-4.27,3.18-5.6,5.47-1.32,2.29-1.99,4.86-1.99,7.72,0,4.32,1.48,7.92,4.44,10.81,2.96,2.89,6.7,4.33,11.21,4.33,4.96,0,9.11-1.94,12.45-5.83l2.79,2.12c-1.77,2.25-3.97,3.99-6.61,5.21-2.64,1.23-5.59,1.84-8.85,1.84-6.2,0-11.08-2.06-14.66-6.19-3-3.48-4.5-7.69-4.5-12.62,0-5.18,1.82-9.55,5.45-13.09s8.19-5.31,13.66-5.31c3.31,0,6.29,.65,8.96,1.96,2.66,1.31,4.85,3.14,6.55,5.5Z"/><path class="cls-1" d="M726.04,92.19h3.54v32h13.63v3.42h-17.17v-35.42Z"/><path class="cls-1" d="M765.69,91.3c5.36,0,9.85,1.79,13.47,5.37,3.61,3.58,5.42,7.99,5.42,13.22s-1.8,9.58-5.41,13.2-8,5.42-13.19,5.42-9.69-1.8-13.3-5.39c-3.61-3.6-5.42-7.95-5.42-13.05,0-3.4,.82-6.56,2.47-9.46,1.65-2.91,3.89-5.18,6.73-6.83,2.84-1.65,5.92-2.47,9.23-2.47Zm.16,3.44c-2.62,0-5.11,.68-7.45,2.05-2.35,1.37-4.18,3.21-5.5,5.52-1.32,2.31-1.98,4.89-1.98,7.74,0,4.21,1.46,7.76,4.38,10.66,2.92,2.9,6.44,4.35,10.55,4.35,2.75,0,5.29-.67,7.63-2,2.34-1.33,4.16-3.16,5.47-5.47,1.31-2.31,1.97-4.88,1.97-7.71s-.66-5.35-1.97-7.63c-1.31-2.27-3.16-4.09-5.53-5.46-2.38-1.37-4.9-2.05-7.57-2.05Z"/><path class="cls-1" d="M791.8,92.19h3.54v21.38c0,2.54,.05,4.12,.14,4.74,.18,1.4,.59,2.56,1.23,3.5,.64,.94,1.63,1.73,2.96,2.36,1.33,.63,2.67,.95,4.02,.95,1.17,0,2.3-.25,3.37-.75,1.08-.5,1.97-1.19,2.7-2.07,.72-.88,1.25-1.95,1.59-3.2,.24-.9,.36-2.75,.36-5.54v-21.38h3.54v21.38c0,3.16-.31,5.72-.93,7.67-.62,1.95-1.85,3.65-3.71,5.09s-4.1,2.17-6.73,2.17c-2.86,0-5.31-.68-7.34-2.05-2.04-1.36-3.4-3.17-4.09-5.42-.43-1.38-.65-3.87-.65-7.46v-21.38Z"/><path class="cls-1" d="M823.97,127.61v-35.42h7.34c5.3,0,9.14,.43,11.53,1.28,3.44,1.2,6.12,3.29,8.05,6.26,1.93,2.97,2.9,6.51,2.9,10.62,0,3.55-.77,6.67-2.3,9.37-1.53,2.7-3.52,4.69-5.97,5.97-2.45,1.28-5.88,1.93-10.29,1.93h-11.27Zm3.4-3.35h4.09c4.9,0,8.29-.3,10.19-.91,2.66-.87,4.76-2.43,6.28-4.68,1.52-2.25,2.29-5.01,2.29-8.26,0-3.42-.83-6.34-2.48-8.76-1.65-2.42-3.96-4.08-6.91-4.98-2.22-.67-5.87-1.01-10.96-1.01h-2.5v28.61Z"/></g></g><g><path class="cls-2" d="M373.91,16.39c0,3.91,2.76,7.69,7.69,7.69s7.69-3.77,7.69-7.69-2.76-7.69-7.69-7.69-7.69,3.77-7.69,7.69Z"/><g><path class="cls-2" d="M39.14,43.53h10.62c1.84-4.55,4.18-8.83,6.96-12.79h-20.01C19.65,30.74,0,43.83,0,67.28s19.65,36.55,36.7,36.55h19.7c-2.73-3.96-5.04-8.25-6.83-12.79h-10.44c-12.64,0-25.13-8.22-25.13-23.76s12.49-23.76,25.13-23.76Z"/><path class="cls-2" d="M416.26,132.85v-61.78c0-19.15,10.15-28.43,22.34-28.43,13.63,0,23.2,10.01,23.2,24.22s-9.14,23.93-22.91,23.93c-5.8,0-12.91-2.9-17.55-6.09v13.34c6.09,3.48,12.76,4.93,19.73,4.93,17.84,0,33.5-15.08,33.5-34.52,0-20.6-13.34-38-35.97-38-20.45,0-35.1,15.38-35.1,38.29v64.11h12.76Z"/><rect class="cls-1" x="375.21" y="31.91" width="12.76" height="69.62"/><path class="cls-2" d="M305.15,101.53h35.68c12.33,0,21.61-6.24,21.61-19.44,0-24.94-44.16-19.87-43.95-31.91,.08-4.36,2.03-6.09,8.27-6.09h32.2v-12.18h-30.02c-15.23,0-23.79,6.53-23.79,18.85,0,24.08,43.95,19.15,43.95,31.91,0,4.35-2.32,6.67-8.27,6.67h-35.68v12.18Z"/><path class="cls-2" d="M291.24,101.53V63.53c0-20.01-13.63-33.07-35.1-33.07s-35.97,15.66-35.97,35.53,14.21,36.98,34.23,36.98c8.85,0,13.78-2.9,18.85-6.67v-15.08c-4.35,5.51-10.3,9.57-17.55,9.57-13.34,0-22.77-10.88-22.77-23.79s8.85-24.37,22.91-24.37c11.6,0,22.62,6.67,22.62,19.73v39.16h12.76Z"/><path class="cls-2" d="M197.83,0V62.37c0,19.14-10.15,28.43-22.34,28.43-13.63,0-23.21-10.01-23.21-24.22s9.14-23.93,22.91-23.93c5.8,0,12.91,2.9,17.55,6.09v-13.34c-6.09-3.48-12.76-4.93-19.72-4.93-17.84,0-33.5,15.08-33.5,34.52,0,20.6,13.34,38,35.97,38,20.45,0,35.1-15.37,35.1-38.29V0h-12.76Z"/><path class="cls-2" d="M72.67,66.72c0-14.21,9.57-24.08,22.77-24.08s22.77,9.86,22.77,24.08-9.57,24.08-22.77,24.08-22.77-9.86-22.77-24.08h0Zm-13.34,0c0,21.46,16.82,36.26,36.11,36.26s36.12-14.79,36.12-36.26-16.82-36.26-36.12-36.26-36.11,14.79-36.11,36.26Z"/></g></g></svg>